<svg xmlns="http://www.w3.org/2000/svg" width="1200" height="675" viewBox="0 0 1200 675">
  <defs>
    <linearGradient id="bg" x1="0%" y1="0%" x2="100%" y2="100%">
      <stop offset="0%" stop-color="hsl(32, 30%, 8%)"/>
      <stop offset="100%" stop-color="hsl(72, 25%, 5%)"/>
    </linearGradient>
    <radialGradient id="glow" cx="50%" cy="45%" r="50%">
      <stop offset="0%" stop-color="#3498db" stop-opacity="0.08"/>
      <stop offset="100%" stop-color="#3498db" stop-opacity="0"/>
    </radialGradient>
    <filter id="textglow">
      <feGaussianBlur stdDeviation="6" result="blur"/>
      <feMerge><feMergeNode in="blur"/><feMergeNode in="SourceGraphic"/></feMerge>
    </filter>
  </defs>
  <rect width="1200" height="675" fill="url(#bg)"/>
  <rect width="1200" height="675" fill="url(#glow)"/>
  <polygon points="100,40 135,60 135,100 100,120 65,100 65,60" fill="none" stroke="#3498db" stroke-width="0.5" opacity="0.09808077663095811"/><polygon points="240,40 275,60 275,100 240,120 205,100 205,60" fill="none" stroke="#3498db" stroke-width="0.5" opacity="0.051543140541750215"/><polygon points="380,40 415,60 415,100 380,120 345,100 345,60" fill="none" stroke="#3498db" stroke-width="0.5" opacity="0.058322717192640885"/><polygon points="520,40 555,60 555,100 520,120 485,100 485,60" fill="none" stroke="#3498db" stroke-width="0.5" opacity="0.0626212152813752"/><polygon points="660,40 695,60 695,100 660,120 625,100 625,60" fill="none" stroke="#3498db" stroke-width="0.5" opacity="0.058395371758409434"/><polygon points="800,40 835,60 835,100 800,120 765,100 765,60" fill="none" stroke="#3498db" stroke-width="0.5" opacity="0.08010980026385081"/><polygon points="940,40 975,60 975,100 940,120 905,100 905,60" fill="none" stroke="#3498db" stroke-width="0.5" opacity="0.05147510410296387"/><polygon points="1080,40 1115,60 1115,100 1080,120 1045,100 1045,60" fill="none" stroke="#3498db" stroke-width="0.5" opacity="0.04537390626676414"/><polygon points="170,160 205,180 205,220 170,240 135,220 135,180" fill="none" stroke="#3498db" stroke-width="0.5" opacity="0.0632221670369551"/><polygon points="310,160 345,180 345,220 310,240 275,220 275,180" fill="none" stroke="#3498db" stroke-width="0.5" opacity="0.05148988439693994"/><polygon points="450,160 485,180 485,220 450,240 415,220 415,180" fill="none" stroke="#3498db" stroke-width="0.5" opacity="0.048583823178473116"/><polygon points="590,160 625,180 625,220 590,240 555,220 555,180" fill="none" stroke="#3498db" stroke-width="0.5" opacity="0.05626910197416834"/><polygon points="730,160 765,180 765,220 730,240 695,220 695,180" fill="none" stroke="#3498db" stroke-width="0.5" opacity="0.04097012565949047"/><polygon points="870,160 905,180 905,220 870,240 835,220 835,180" fill="none" stroke="#3498db" stroke-width="0.5" opacity="0.08860069433460288"/><polygon points="1010,160 1045,180 1045,220 1010,240 975,220 975,180" fill="none" stroke="#3498db" stroke-width="0.5" opacity="0.09627911972008044"/><polygon points="1150,160 1185,180 1185,220 1150,240 1115,220 1115,180" fill="none" stroke="#3498db" stroke-width="0.5" opacity="0.081941477442796"/><polygon points="100,280 135,300 135,340 100,360 65,340 65,300" fill="none" stroke="#3498db" stroke-width="0.5" opacity="0.04780310670813162"/><polygon points="240,280 275,300 275,340 240,360 205,340 205,300" fill="none" stroke="#3498db" stroke-width="0.5" opacity="0.053966810633945386"/><polygon points="380,280 415,300 415,340 380,360 345,340 345,300" fill="none" stroke="#3498db" stroke-width="0.5" opacity="0.09834190762200443"/><polygon points="520,280 555,300 555,340 520,360 485,340 485,300" fill="none" stroke="#3498db" stroke-width="0.5" opacity="0.05465805763219844"/><polygon points="660,280 695,300 695,340 660,360 625,340 625,300" fill="none" stroke="#3498db" stroke-width="0.5" opacity="0.08949514686958729"/><polygon points="800,280 835,300 835,340 800,360 765,340 765,300" fill="none" stroke="#3498db" stroke-width="0.5" opacity="0.05127288722665237"/><polygon points="940,280 975,300 975,340 940,360 905,340 905,300" fill="none" stroke="#3498db" stroke-width="0.5" opacity="0.04798886123469381"/><polygon points="1080,280 1115,300 1115,340 1080,360 1045,340 1045,300" fill="none" stroke="#3498db" stroke-width="0.5" opacity="0.0744503891729992"/><polygon points="170,400 205,420 205,460 170,480 135,460 135,420" fill="none" stroke="#3498db" stroke-width="0.5" opacity="0.06102132972362071"/><polygon points="310,400 345,420 345,460 310,480 275,460 275,420" fill="none" stroke="#3498db" stroke-width="0.5" opacity="0.08585880781257149"/><polygon points="450,400 485,420 485,460 450,480 415,460 415,420" fill="none" stroke="#3498db" stroke-width="0.5" opacity="0.08627314357424108"/><polygon points="590,400 625,420 625,460 590,480 555,460 555,420" fill="none" stroke="#3498db" stroke-width="0.5" opacity="0.05045237659553364"/><polygon points="730,400 765,420 765,460 730,480 695,460 695,420" fill="none" stroke="#3498db" stroke-width="0.5" opacity="0.09085993426750824"/><polygon points="870,400 905,420 905,460 870,480 835,460 835,420" fill="none" stroke="#3498db" stroke-width="0.5" opacity="0.06199225895950218"/><polygon points="1010,400 1045,420 1045,460 1010,480 975,460 975,420" fill="none" stroke="#3498db" stroke-width="0.5" opacity="0.09217059149321613"/><polygon points="1150,400 1185,420 1185,460 1150,480 1115,460 1115,420" fill="none" stroke="#3498db" stroke-width="0.5" opacity="0.04097642084782996"/>
  <line x1="0" y1="540" x2="1200" y2="540" stroke="#3498db" stroke-width="0.5" opacity="0.1"/>
  <text x="600" y="310" font-family="system-ui,-apple-system,sans-serif" font-size="42" font-weight="700" fill="rgba(255,255,255,0.9)" text-anchor="middle" filter="url(#textglow)">Crusader Kings III</text>
  <rect x="564" y="345" width="72" height="28" rx="14" fill="#66c0f4" opacity="0.2"/>
  <text x="600" y="364" font-family="system-ui,-apple-system,sans-serif" font-size="11" font-weight="600" fill="#66c0f4" text-anchor="middle" letter-spacing="2">NEWS</text>
  <text x="600" y="630" font-family="system-ui,-apple-system,sans-serif" font-size="11" fill="rgba(102,192,244,0.3)" text-anchor="middle" letter-spacing="3">STEAMPULSE</text>
</svg>