<svg xmlns="http://www.w3.org/2000/svg" width="1200" height="675" viewBox="0 0 1200 675">
  <defs>
    <linearGradient id="bg" x1="0%" y1="0%" x2="100%" y2="100%">
      <stop offset="0%" stop-color="hsl(17, 30%, 8%)"/>
      <stop offset="100%" stop-color="hsl(57, 25%, 5%)"/>
    </linearGradient>
    <radialGradient id="glow" cx="50%" cy="45%" r="50%">
      <stop offset="0%" stop-color="#f39c12" stop-opacity="0.08"/>
      <stop offset="100%" stop-color="#f39c12" stop-opacity="0"/>
    </radialGradient>
    <filter id="textglow">
      <feGaussianBlur stdDeviation="6" result="blur"/>
      <feMerge><feMergeNode in="blur"/><feMergeNode in="SourceGraphic"/></feMerge>
    </filter>
  </defs>
  <rect width="1200" height="675" fill="url(#bg)"/>
  <rect width="1200" height="675" fill="url(#glow)"/>
  <line x1="-400" y1="0" x2="275" y2="675" stroke="#f39c12" stroke-width="0.5" opacity="0.04"/><line x1="-320" y1="0" x2="355" y2="675" stroke="#f39c12" stroke-width="0.5" opacity="0.04"/><line x1="-240" y1="0" x2="435" y2="675" stroke="#f39c12" stroke-width="0.5" opacity="0.04"/><line x1="-160" y1="0" x2="515" y2="675" stroke="#f39c12" stroke-width="0.5" opacity="0.04"/><line x1="-80" y1="0" x2="595" y2="675" stroke="#f39c12" stroke-width="0.5" opacity="0.04"/><line x1="0" y1="0" x2="675" y2="675" stroke="#f39c12" stroke-width="0.5" opacity="0.04"/><line x1="80" y1="0" x2="755" y2="675" stroke="#f39c12" stroke-width="0.5" opacity="0.04"/><line x1="160" y1="0" x2="835" y2="675" stroke="#f39c12" stroke-width="0.5" opacity="0.04"/><line x1="240" y1="0" x2="915" y2="675" stroke="#f39c12" stroke-width="0.5" opacity="0.04"/><line x1="320" y1="0" x2="995" y2="675" stroke="#f39c12" stroke-width="0.5" opacity="0.04"/><line x1="400" y1="0" x2="1075" y2="675" stroke="#f39c12" stroke-width="0.5" opacity="0.04"/><line x1="480" y1="0" x2="1155" y2="675" stroke="#f39c12" stroke-width="0.5" opacity="0.04"/><line x1="560" y1="0" x2="1235" y2="675" stroke="#f39c12" stroke-width="0.5" opacity="0.04"/><line x1="640" y1="0" x2="1315" y2="675" stroke="#f39c12" stroke-width="0.5" opacity="0.04"/><line x1="720" y1="0" x2="1395" y2="675" stroke="#f39c12" stroke-width="0.5" opacity="0.04"/><line x1="800" y1="0" x2="1475" y2="675" stroke="#f39c12" stroke-width="0.5" opacity="0.04"/><line x1="880" y1="0" x2="1555" y2="675" stroke="#f39c12" stroke-width="0.5" opacity="0.04"/><line x1="960" y1="0" x2="1635" y2="675" stroke="#f39c12" stroke-width="0.5" opacity="0.04"/><line x1="1040" y1="0" x2="1715" y2="675" stroke="#f39c12" stroke-width="0.5" opacity="0.04"/><line x1="1120" y1="0" x2="1795" y2="675" stroke="#f39c12" stroke-width="0.5" opacity="0.04"/><line x1="1200" y1="0" x2="1875" y2="675" stroke="#f39c12" stroke-width="0.5" opacity="0.04"/><line x1="1280" y1="0" x2="1955" y2="675" stroke="#f39c12" stroke-width="0.5" opacity="0.04"/><line x1="1360" y1="0" x2="2035" y2="675" stroke="#f39c12" stroke-width="0.5" opacity="0.04"/><line x1="1440" y1="0" x2="2115" y2="675" stroke="#f39c12" stroke-width="0.5" opacity="0.04"/><line x1="1520" y1="0" x2="2195" y2="675" stroke="#f39c12" stroke-width="0.5" opacity="0.04"/>
  <line x1="0" y1="540" x2="1200" y2="540" stroke="#f39c12" stroke-width="0.5" opacity="0.1"/>
  <text x="600" y="310" font-family="system-ui,-apple-system,sans-serif" font-size="42" font-weight="700" fill="rgba(255,255,255,0.9)" text-anchor="middle" filter="url(#textglow)">iRacing</text>
  <rect x="564" y="345" width="72" height="28" rx="14" fill="#66c0f4" opacity="0.2"/>
  <text x="600" y="364" font-family="system-ui,-apple-system,sans-serif" font-size="11" font-weight="600" fill="#66c0f4" text-anchor="middle" letter-spacing="2">NEWS</text>
  <text x="600" y="630" font-family="system-ui,-apple-system,sans-serif" font-size="11" fill="rgba(102,192,244,0.3)" text-anchor="middle" letter-spacing="3">STEAMPULSE</text>
</svg>