<svg xmlns="http://www.w3.org/2000/svg" width="1200" height="675" viewBox="0 0 1200 675">
  <defs>
    <linearGradient id="bg" x1="0%" y1="0%" x2="100%" y2="100%">
      <stop offset="0%" stop-color="hsl(106, 30%, 8%)"/>
      <stop offset="100%" stop-color="hsl(146, 25%, 5%)"/>
    </linearGradient>
    <radialGradient id="glow" cx="50%" cy="45%" r="50%">
      <stop offset="0%" stop-color="#ff6b35" stop-opacity="0.08"/>
      <stop offset="100%" stop-color="#ff6b35" stop-opacity="0"/>
    </radialGradient>
    <filter id="textglow">
      <feGaussianBlur stdDeviation="6" result="blur"/>
      <feMerge><feMergeNode in="blur"/><feMergeNode in="SourceGraphic"/></feMerge>
    </filter>
  </defs>
  <rect width="1200" height="675" fill="url(#bg)"/>
  <rect width="1200" height="675" fill="url(#glow)"/>
  <polygon points="100,40 135,60 135,100 100,120 65,100 65,60" fill="none" stroke="#ff6b35" stroke-width="0.5" opacity="0.08749686520693095"/><polygon points="240,40 275,60 275,100 240,120 205,100 205,60" fill="none" stroke="#ff6b35" stroke-width="0.5" opacity="0.04869590285889307"/><polygon points="380,40 415,60 415,100 380,120 345,100 345,60" fill="none" stroke="#ff6b35" stroke-width="0.5" opacity="0.08195415755926769"/><polygon points="520,40 555,60 555,100 520,120 485,100 485,60" fill="none" stroke="#ff6b35" stroke-width="0.5" opacity="0.05074047851697838"/><polygon points="660,40 695,60 695,100 660,120 625,100 625,60" fill="none" stroke="#ff6b35" stroke-width="0.5" opacity="0.09339804998674722"/><polygon points="800,40 835,60 835,100 800,120 765,100 765,60" fill="none" stroke="#ff6b35" stroke-width="0.5" opacity="0.08556703363799556"/><polygon points="940,40 975,60 975,100 940,120 905,100 905,60" fill="none" stroke="#ff6b35" stroke-width="0.5" opacity="0.05722207362116714"/><polygon points="1080,40 1115,60 1115,100 1080,120 1045,100 1045,60" fill="none" stroke="#ff6b35" stroke-width="0.5" opacity="0.0978980957370571"/><polygon points="170,160 205,180 205,220 170,240 135,220 135,180" fill="none" stroke="#ff6b35" stroke-width="0.5" opacity="0.07869151668806143"/><polygon points="310,160 345,180 345,220 310,240 275,220 275,180" fill="none" stroke="#ff6b35" stroke-width="0.5" opacity="0.07693473918958735"/><polygon points="450,160 485,180 485,220 450,240 415,220 415,180" fill="none" stroke="#ff6b35" stroke-width="0.5" opacity="0.09069655331235682"/><polygon points="590,160 625,180 625,220 590,240 555,220 555,180" fill="none" stroke="#ff6b35" stroke-width="0.5" opacity="0.09185048768902093"/><polygon points="730,160 765,180 765,220 730,240 695,220 695,180" fill="none" stroke="#ff6b35" stroke-width="0.5" opacity="0.08445469419044019"/><polygon points="870,160 905,180 905,220 870,240 835,220 835,180" fill="none" stroke="#ff6b35" stroke-width="0.5" opacity="0.08299528009890147"/><polygon points="1010,160 1045,180 1045,220 1010,240 975,220 975,180" fill="none" stroke="#ff6b35" stroke-width="0.5" opacity="0.09528491887961948"/><polygon points="1150,160 1185,180 1185,220 1150,240 1115,220 1115,180" fill="none" stroke="#ff6b35" stroke-width="0.5" opacity="0.07549467894853656"/><polygon points="100,280 135,300 135,340 100,360 65,340 65,300" fill="none" stroke="#ff6b35" stroke-width="0.5" opacity="0.0987313689484389"/><polygon points="240,280 275,300 275,340 240,360 205,340 205,300" fill="none" stroke="#ff6b35" stroke-width="0.5" opacity="0.09094275025848954"/><polygon points="380,280 415,300 415,340 380,360 345,340 345,300" fill="none" stroke="#ff6b35" stroke-width="0.5" opacity="0.06137490610573363"/><polygon points="520,280 555,300 555,340 520,360 485,340 485,300" fill="none" stroke="#ff6b35" stroke-width="0.5" opacity="0.04754908538516275"/><polygon points="660,280 695,300 695,340 660,360 625,340 625,300" fill="none" stroke="#ff6b35" stroke-width="0.5" opacity="0.05121941803519373"/><polygon points="800,280 835,300 835,340 800,360 765,340 765,300" fill="none" stroke="#ff6b35" stroke-width="0.5" opacity="0.060593988975721214"/><polygon points="940,280 975,300 975,340 940,360 905,340 905,300" fill="none" stroke="#ff6b35" stroke-width="0.5" opacity="0.09310791447560626"/><polygon points="1080,280 1115,300 1115,340 1080,360 1045,340 1045,300" fill="none" stroke="#ff6b35" stroke-width="0.5" opacity="0.054130116954288515"/><polygon points="170,400 205,420 205,460 170,480 135,460 135,420" fill="none" stroke="#ff6b35" stroke-width="0.5" opacity="0.05724142258770985"/><polygon points="310,400 345,420 345,460 310,480 275,460 275,420" fill="none" stroke="#ff6b35" stroke-width="0.5" opacity="0.09009766787572694"/><polygon points="450,400 485,420 485,460 450,480 415,460 415,420" fill="none" stroke="#ff6b35" stroke-width="0.5" opacity="0.04585753334717572"/><polygon points="590,400 625,420 625,460 590,480 555,460 555,420" fill="none" stroke="#ff6b35" stroke-width="0.5" opacity="0.053667456864179106"/><polygon points="730,400 765,420 765,460 730,480 695,460 695,420" fill="none" stroke="#ff6b35" stroke-width="0.5" opacity="0.052446366019104386"/><polygon points="870,400 905,420 905,460 870,480 835,460 835,420" fill="none" stroke="#ff6b35" stroke-width="0.5" opacity="0.05981928128113005"/><polygon points="1010,400 1045,420 1045,460 1010,480 975,460 975,420" fill="none" stroke="#ff6b35" stroke-width="0.5" opacity="0.04163417628303671"/><polygon points="1150,400 1185,420 1185,460 1150,480 1115,460 1115,420" fill="none" stroke="#ff6b35" stroke-width="0.5" opacity="0.09900974747797195"/>
  <line x1="0" y1="540" x2="1200" y2="540" stroke="#ff6b35" stroke-width="0.5" opacity="0.1"/>
  <text x="600" y="310" font-family="system-ui,-apple-system,sans-serif" font-size="42" font-weight="700" fill="rgba(255,255,255,0.9)" text-anchor="middle" filter="url(#textglow)">NARAKA: BLADEPOINT</text>
  <rect x="564" y="345" width="72" height="28" rx="14" fill="#66c0f4" opacity="0.2"/>
  <text x="600" y="364" font-family="system-ui,-apple-system,sans-serif" font-size="11" font-weight="600" fill="#66c0f4" text-anchor="middle" letter-spacing="2">NEWS</text>
  <text x="600" y="630" font-family="system-ui,-apple-system,sans-serif" font-size="11" fill="rgba(102,192,244,0.3)" text-anchor="middle" letter-spacing="3">STEAMPULSE</text>
</svg>